<svg width="22" height="24" viewBox="0 0 22 24" fill="none" xmlns="http://www.w3.org/2000/svg">
<path d="M14.6327 14.2253L17.1671 12.2254C20.1713 9.85236 21.5011 5.06723 20.8293 1.17963C17.1349 0.472561 12.589 1.87236 10.3359 5.03462L8.43601 7.70245M14.6327 14.2253L10.295 17.4867L5.33767 12.2684L8.43601 7.70245M14.6327 14.2253V17.7045C14.6327 18.8336 14.2848 19.9322 13.6412 20.8355L12.7737 22.0526L11.5343 20.7481M8.43601 7.70245H5.1307C4.05808 7.70245 3.01439 8.06865 2.1563 8.7461L1 9.65929L2.23933 10.9639M6.577 19.4435L2.23933 20.7481L3.6844 16.1821M15.2523 8.35473C15.581 8.35473 15.8963 8.21728 16.1287 7.97263C16.3611 7.72798 16.4917 7.39616 16.4917 7.05016C16.4917 6.70417 16.3611 6.37235 16.1287 6.1277C15.8963 5.88305 15.581 5.7456 15.2523 5.7456C14.9237 5.7456 14.6084 5.88305 14.376 6.1277C14.1436 6.37235 14.013 6.70417 14.013 7.05016C14.013 7.39616 14.1436 7.72798 14.376 7.97263C14.6084 8.21728 14.9237 8.35473 15.2523 8.35473V8.35473Z" stroke="white" stroke-width="2" stroke-linecap="round" stroke-linejoin="round"/>
</svg>
