<svg width="152" height="134" viewBox="0 0 152 134" fill="none" xmlns="http://www.w3.org/2000/svg">
<path fill-rule="evenodd" clip-rule="evenodd" d="M75.7192 0C75.6357 0 75.5522 0.00013566 75.4688 0.000406742L75.472 1.0004C75.5544 1.00013 75.6368 1 75.7192 1C75.8017 1 75.8841 1.00013 75.9665 1.0004L75.9698 0.000406921C75.8863 0.00013572 75.8028 0 75.7192 0ZM72.4782 0.0683216C72.3128 0.0753056 72.1476 0.0828215 71.9825 0.0908675L72.0312 1.08968C72.1941 1.08174 72.3572 1.07432 72.5204 1.06743L72.4782 0.0683216ZM79.456 0.0908696C79.2909 0.0828235 79.1257 0.0753075 78.9604 0.0683234L78.9182 1.06743C79.0813 1.07433 79.2444 1.08174 79.4073 1.08968L79.456 0.0908696ZM68.9967 0.295231C68.8317 0.309797 68.6667 0.324895 68.502 0.340522L68.5964 1.33605C68.759 1.32063 68.9217 1.30573 69.0846 1.29136L68.9967 0.295231ZM82.9365 0.340526C82.7718 0.324899 82.6068 0.309801 82.4418 0.295234L82.3539 1.29136C82.5168 1.30574 82.6795 1.32064 82.8421 1.33606L82.9365 0.340526ZM65.5298 0.681776C65.3654 0.703956 65.2012 0.726666 65.0371 0.749903L65.1774 1.74002C65.3393 1.71709 65.5013 1.69468 65.6635 1.6728L65.5298 0.681776ZM86.4014 0.749908C86.2373 0.726671 86.0731 0.703962 85.9087 0.681781L85.775 1.6728C85.9372 1.69469 86.0993 1.7171 86.2611 1.74003L86.4014 0.749908ZM62.0847 1.22801C61.9214 1.2578 61.7583 1.28812 61.5953 1.31896L61.7812 2.30152C61.942 2.27109 62.103 2.24117 62.2642 2.21178L62.0847 1.22801ZM89.8432 1.31896C89.6803 1.28812 89.5171 1.25781 89.3538 1.22802L89.1743 2.21178C89.3355 2.24118 89.4965 2.27109 89.6573 2.30152L89.8432 1.31896ZM58.6688 1.93338C58.5069 1.97075 58.3452 2.00863 58.1838 2.04704L58.4152 3.0199C58.5745 2.98201 58.734 2.94463 58.8937 2.90776L58.6688 1.93338ZM93.2547 2.04705C93.0933 2.00864 92.9316 1.97076 92.7697 1.93339L92.5448 2.90776C92.7045 2.94463 92.864 2.98201 93.0233 3.01991L93.2547 2.04705ZM55.2894 2.79677C55.1293 2.84165 54.9695 2.88703 54.81 2.93293L55.0864 3.89397C55.2438 3.84869 55.4015 3.8039 55.5594 3.75963L55.2894 2.79677ZM96.6286 2.93294C96.469 2.88704 96.3092 2.84165 96.1491 2.79678L95.8791 3.75964C96.037 3.80391 96.1947 3.8487 96.3521 3.89398L96.6286 2.93294ZM51.9538 3.8165C51.796 3.86879 51.6384 3.92158 51.4811 3.97488L51.8019 4.92201C51.9572 4.86943 52.1127 4.81733 52.2683 4.76574L51.9538 3.8165ZM99.9574 3.9749C99.8001 3.92159 99.6425 3.8688 99.4847 3.81651L99.1702 4.76575C99.3259 4.81734 99.4813 4.86944 99.6366 4.92202L99.9574 3.9749ZM48.6693 4.99038C48.5141 5.04997 48.3591 5.11005 48.2044 5.17063L48.569 6.10181C48.7216 6.04203 48.8745 5.98275 49.0277 5.92396L48.6693 4.99038ZM103.234 5.17064C103.079 5.11006 102.924 5.04998 102.769 4.99039L102.411 5.92397C102.564 5.98276 102.717 6.04204 102.87 6.10181L103.234 5.17064ZM45.443 6.31577C45.2907 6.38252 45.1386 6.44975 44.9869 6.51746L45.3943 7.43068C45.5441 7.36387 45.6941 7.29754 45.8443 7.23168L45.443 6.31577ZM106.452 6.51747C106.3 6.44976 106.148 6.38253 105.996 6.31578L105.594 7.23169C105.744 7.29755 105.894 7.36388 106.044 7.43069L106.452 6.51747ZM42.2816 7.78961C42.1326 7.86334 41.9839 7.93756 41.8354 8.01225L42.2848 8.90558C42.4313 8.83188 42.578 8.75866 42.7251 8.6859L42.2816 7.78961ZM109.603 8.01226C109.455 7.93757 109.306 7.86335 109.157 7.78962L108.713 8.68591C108.86 8.75867 109.007 8.83189 109.154 8.90559L109.603 8.01226ZM39.192 9.40843C39.0466 9.48899 38.9014 9.57001 38.7566 9.6515L39.2469 10.5231C39.3898 10.4427 39.533 10.3627 39.6765 10.2832L39.192 9.40843ZM112.682 9.65151C112.537 9.57003 112.392 9.489 112.246 9.40845L111.762 10.2832C111.905 10.3627 112.049 10.4427 112.192 10.5231L112.682 9.65151ZM36.1806 11.1685C36.0391 11.2557 35.8978 11.3433 35.7569 11.4314L36.2869 12.2794C36.426 12.1925 36.5654 12.106 36.7051 12.02L36.1806 11.1685ZM115.682 11.4314C115.541 11.3433 115.399 11.2557 115.258 11.1685L114.733 12.02C114.873 12.106 115.012 12.1925 115.152 12.2794L115.682 11.4314ZM33.2537 13.0658C33.1164 13.1594 32.9793 13.2534 32.8426 13.3479L33.4112 14.1705C33.5461 14.0773 33.6813 13.9845 33.8169 13.8921L33.2537 13.0658ZM118.596 13.3479C118.459 13.2534 118.322 13.1594 118.185 13.0658L117.622 13.8921C117.757 13.9845 117.892 14.0773 118.027 14.1706L118.596 13.3479ZM30.4174 15.0959C30.2845 15.1957 30.1519 15.296 30.0197 15.3967L30.6256 16.1922C30.756 16.0929 30.8868 15.994 31.018 15.8955L30.4174 15.0959ZM121.419 15.3967C121.287 15.296 121.154 15.1957 121.021 15.0959L120.421 15.8955C120.552 15.994 120.682 16.0929 120.813 16.1922L121.419 15.3967ZM27.6774 17.2544C27.5493 17.3602 27.4215 17.4665 27.2941 17.5731L27.9358 18.34C28.0616 18.2348 28.1877 18.1299 28.3141 18.0255L27.6774 17.2544ZM124.144 17.5731C124.017 17.4665 123.889 17.3602 123.761 17.2544L123.124 18.0255C123.251 18.1299 123.377 18.2348 123.503 18.34L124.144 17.5731ZM126.767 19.8725C126.645 19.7601 126.522 19.6482 126.399 19.5366L125.728 20.2777C125.849 20.3878 125.97 20.4982 126.091 20.6091L126.767 19.8725ZM25.0395 19.5367C24.9164 19.6482 24.7936 19.7601 24.6713 19.8725L25.3476 20.6091C25.4683 20.4982 25.5895 20.3878 25.7109 20.2777L25.0395 19.5367ZM22.5091 21.9375C22.3913 22.0546 22.2739 22.1721 22.1568 22.2899L22.8662 22.9947C22.9817 22.8784 23.0976 22.7625 23.2139 22.647L22.5091 21.9375ZM129.282 22.2899C129.165 22.1721 129.047 22.0546 128.929 21.9375L128.225 22.647C128.341 22.7625 128.457 22.8784 128.572 22.9947L129.282 22.2899ZM131.683 24.8202C131.571 24.6971 131.459 24.5744 131.347 24.452L130.61 25.1283C130.721 25.2491 130.831 25.3702 130.942 25.4917L131.683 24.8202ZM20.0917 24.452C19.9794 24.5744 19.8674 24.6971 19.7559 24.8202L20.4969 25.4917C20.607 25.3702 20.7175 25.2491 20.8283 25.1284L20.0917 24.452ZM17.7923 27.0748C17.6857 27.2022 17.5795 27.33 17.4737 27.4582L18.2448 28.0949C18.3492 27.9684 18.454 27.8423 18.5592 27.7166L17.7923 27.0748ZM133.965 27.4582C133.859 27.33 133.753 27.2022 133.646 27.0748L132.879 27.7166C132.984 27.8423 133.089 27.9684 133.194 28.0949L133.965 27.4582ZM15.6159 29.8005C15.5152 29.9327 15.415 30.0652 15.3152 30.1981L16.1147 30.7987C16.2132 30.6676 16.3121 30.5368 16.4115 30.4063L15.6159 29.8005ZM136.123 30.1981C136.023 30.0652 135.923 29.9327 135.823 29.8005L135.027 30.4063C135.126 30.5368 135.225 30.6676 135.324 30.7987L136.123 30.1981ZM13.5672 32.6234C13.4727 32.7601 13.3786 32.8971 13.285 33.0345L14.1114 33.5976C14.2037 33.4621 14.2966 33.3268 14.3898 33.1919L13.5672 32.6234ZM138.153 33.0345C138.06 32.8971 137.966 32.7601 137.871 32.6234L137.049 33.192C137.142 33.3269 137.235 33.4621 137.327 33.5976L138.153 33.0345ZM11.6507 35.5377C11.5626 35.6786 11.4749 35.8198 11.3878 35.9614L12.2392 36.4858C12.3252 36.3461 12.4117 36.2068 12.4986 36.0677L11.6507 35.5377ZM140.051 35.9614C139.964 35.8199 139.876 35.6786 139.788 35.5377L138.94 36.0677C139.027 36.2068 139.113 36.3461 139.199 36.4858L140.051 35.9614ZM9.87075 38.5373C9.78926 38.6822 9.70824 38.8273 9.62768 38.9728L10.5025 39.4573C10.582 39.3138 10.6619 39.1705 10.7423 39.0276L9.87075 38.5373ZM141.811 38.9728C141.73 38.8274 141.649 38.6822 141.568 38.5373L140.696 39.0276C140.777 39.1706 140.857 39.3138 140.936 39.4573L141.811 38.9728ZM8.2315 41.6161C8.15681 41.7646 8.08259 41.9133 8.00885 42.0624L8.90515 42.5058C8.9779 42.3588 9.05113 42.212 9.12483 42.0655L8.2315 41.6161ZM143.43 42.0624C143.356 41.9134 143.282 41.7646 143.207 41.6161L142.314 42.0655C142.387 42.212 142.461 42.3588 142.533 42.5059L143.43 42.0624ZM6.73671 44.7676C6.66899 44.9194 6.60176 45.0714 6.53502 45.2237L7.45093 45.6251C7.51678 45.4748 7.58312 45.3248 7.64993 45.1751L6.73671 44.7676ZM144.903 45.2237C144.837 45.0714 144.769 44.9194 144.702 44.7676L143.789 45.1751C143.855 45.3248 143.922 45.4748 143.988 45.6251L144.903 45.2237ZM5.38988 47.9851C5.3293 48.1399 5.26922 48.2948 5.20963 48.4501L6.14321 48.8084C6.202 48.6553 6.26128 48.5024 6.32105 48.3497L5.38988 47.9851ZM146.229 48.4501C146.169 48.2949 146.109 48.1399 146.049 47.9852L145.117 48.3497C145.177 48.5024 145.236 48.6553 145.295 48.8084L146.229 48.4501ZM4.19413 51.2618C4.14083 51.4192 4.08804 51.5767 4.03575 51.7345L4.98499 52.0491C5.03658 51.8934 5.08867 51.7379 5.14126 51.5827L4.19413 51.2618ZM147.403 51.7346C147.35 51.5768 147.298 51.4192 147.244 51.2619L146.297 51.5827C146.35 51.7379 146.402 51.8934 146.453 52.0491L147.403 51.7346ZM3.15218 54.5907C3.10628 54.7503 3.06089 54.9101 3.01602 55.0701L3.97887 55.3401C4.02315 55.1822 4.06793 55.0246 4.11322 54.8671L3.15218 54.5907ZM148.422 55.0701C148.378 54.9101 148.332 54.7503 148.286 54.5907L147.325 54.8671C147.371 55.0246 147.415 55.1823 147.46 55.3401L148.422 55.0701ZM2.26629 57.9645C2.22788 58.126 2.18999 58.2876 2.15263 58.4495L3.127 58.6744C3.16387 58.5147 3.20125 58.3552 3.23915 58.1959L2.26629 57.9645ZM149.286 58.4495C149.248 58.2877 149.211 58.126 149.172 57.9645L148.199 58.1959C148.237 58.3553 148.275 58.5148 148.311 58.6745L149.286 58.4495ZM1.5382 61.376C1.50736 61.539 1.47704 61.7021 1.44725 61.8655L2.43102 62.0449C2.46042 61.8837 2.49033 61.7228 2.52076 61.562L1.5382 61.376ZM149.991 61.8655C149.961 61.7022 149.931 61.539 149.9 61.3761L148.918 61.562C148.948 61.7228 148.978 61.8838 149.007 62.0449L149.991 61.8655ZM0.969146 64.8179C0.945909 64.9819 0.9232 65.1462 0.90102 65.3106L1.89204 65.4443C1.91393 65.282 1.93634 65.12 1.95926 64.9581L0.969146 64.8179ZM150.537 65.3106C150.515 65.1462 150.493 64.982 150.469 64.8179L149.479 64.9581C149.502 65.12 149.525 65.2821 149.546 65.4443L150.537 65.3106ZM0.559764 68.2827C0.544137 68.4475 0.529039 68.6124 0.514473 68.7775L1.5106 68.8654C1.52498 68.7025 1.53988 68.5397 1.5553 68.3771L0.559764 68.2827ZM150.903 68.5413C150.895 68.455 150.887 68.3689 150.879 68.2827L149.883 68.3772L149.899 68.5407C149.909 68.6489 149.918 68.7571 149.928 68.8654L150.924 68.7775C150.917 68.6987 150.91 68.62 150.903 68.5413ZM0.310108 71.7633C0.302062 71.9283 0.294546 72.0935 0.287562 72.2589L1.28667 72.3011C1.29356 72.1379 1.30098 71.9748 1.30892 71.8119L0.310108 71.7633ZM151.151 72.2589C151.144 72.0936 151.136 71.9284 151.128 71.7633L150.13 71.812C150.137 71.9749 150.145 72.1379 150.152 72.3011L151.151 72.2589ZM0.219645 75.2495C0.219374 75.3329 0.219238 75.4165 0.219238 75.5C0.219238 75.5835 0.219374 75.667 0.219645 75.7505L1.21964 75.7472C1.21937 75.6649 1.21924 75.5824 1.21924 75.5C1.21924 75.4175 1.21937 75.3351 1.21964 75.2527L0.219645 75.2495ZM151.219 75.5L151.219 75.3898L151.219 75.2495L150.219 75.2528L150.219 75.3502L150.219 75.5L150.219 75.5906L150.219 75.7473L151.219 75.7505C151.219 75.7054 151.219 75.6603 151.219 75.6152C151.219 75.5768 151.219 75.5384 151.219 75.5ZM0.28756 78.7411C0.294544 78.9064 0.30206 79.0716 0.310106 79.2367L1.30892 79.188C1.30098 79.0251 1.29356 78.8621 1.28667 78.6989L0.28756 78.7411ZM151.128 79.2367C151.136 79.0717 151.144 78.9065 151.151 78.7411L150.152 78.6989C150.148 78.7816 150.145 78.8642 150.141 78.9468C150.137 79.0272 150.133 79.1077 150.13 79.1881L151.128 79.2367ZM0.514469 82.2225C0.529035 82.3876 0.544133 82.5525 0.55976 82.7173L1.55529 82.6228C1.53987 82.4602 1.52497 82.2975 1.5106 82.1346L0.514469 82.2225ZM150.879 82.7173C150.894 82.5525 150.909 82.3876 150.924 82.2225L149.928 82.1346C149.913 82.2975 149.899 82.4603 149.883 82.6229L150.879 82.7173ZM0.901014 85.6894C0.923195 85.8538 0.945904 86.018 0.969141 86.1821L1.95926 86.0419C1.93633 85.88 1.91392 85.7179 1.89204 85.5557L0.901014 85.6894ZM150.469 86.1821C150.493 86.0181 150.515 85.8538 150.537 85.6894L149.546 85.5557C149.525 85.7179 149.502 85.88 149.479 86.0419L150.469 86.1821ZM1.44725 89.1345C1.47704 89.2978 1.50735 89.461 1.5382 89.6239L2.52075 89.438C2.49032 89.2772 2.46041 89.1162 2.43102 88.9551L1.44725 89.1345ZM149.9 89.624C149.931 89.461 149.961 89.2979 149.991 89.1345L149.007 88.9551C148.978 89.1163 148.948 89.2772 148.918 89.438L149.9 89.624ZM2.15262 92.5505C2.18999 92.7123 2.22787 92.874 2.26628 93.0355L3.23914 92.8041C3.20124 92.6447 3.16386 92.4852 3.127 92.3255L2.15262 92.5505ZM149.238 92.7585C149.254 92.6892 149.27 92.6199 149.286 92.5505L148.311 92.3256C148.275 92.4853 148.237 92.6448 148.199 92.8041L149.172 93.0355C149.194 92.9432 149.216 92.8509 149.238 92.7585ZM3.01601 95.9299C3.06088 96.0899 3.10627 96.2497 3.15217 96.4093L4.11321 96.1329C4.06792 95.9754 4.02314 95.8177 3.97887 95.6599L3.01601 95.9299ZM148.364 96.1387C148.383 96.0692 148.403 95.9996 148.422 95.9299L147.46 95.6599C147.435 95.7471 147.411 95.8342 147.386 95.9212C147.366 95.9918 147.346 96.0624 147.325 96.1329L148.286 96.4093C148.312 96.3192 148.338 96.229 148.364 96.1387ZM4.03574 99.2654C4.08803 99.4232 4.14082 99.5808 4.19412 99.7381L5.14125 99.4173C5.08866 99.2621 5.03657 99.1066 4.98498 98.9509L4.03574 99.2654ZM147.244 99.7382C147.298 99.5808 147.35 99.4233 147.403 99.2655L146.453 98.9509C146.433 99.0117 146.413 99.0725 146.393 99.1332C146.361 99.228 146.329 99.3227 146.297 99.4173L147.244 99.7382ZM5.20962 102.55C5.26921 102.705 5.32929 102.86 5.38987 103.015L6.32104 102.65C6.26127 102.498 6.20199 102.345 6.1432 102.192L5.20962 102.55ZM146.049 103.015C146.109 102.86 146.169 102.705 146.229 102.55L145.295 102.192C145.236 102.345 145.177 102.498 145.117 102.65L146.049 103.015ZM6.53501 105.776C6.60175 105.929 6.66898 106.081 6.7367 106.232L7.64992 105.825C7.58311 105.675 7.51678 105.525 7.45092 105.375L6.53501 105.776ZM144.702 106.232C144.769 106.081 144.837 105.929 144.903 105.776L143.988 105.375L143.91 105.551C143.87 105.642 143.829 105.734 143.789 105.825L144.702 106.232ZM8.00884 108.938C8.08258 109.087 8.15679 109.235 8.23148 109.384L9.12482 108.934C9.05112 108.788 8.97789 108.641 8.90514 108.494L8.00884 108.938ZM143.314 109.17C143.353 109.093 143.391 109.015 143.43 108.938L142.533 108.494C142.461 108.641 142.387 108.788 142.314 108.934L143.207 109.384C143.243 109.313 143.278 109.242 143.314 109.17ZM9.62767 112.027C9.70823 112.173 9.78925 112.318 9.87074 112.463L10.7423 111.972C10.6619 111.829 10.582 111.686 10.5025 111.543L9.62767 112.027ZM141.568 112.463C141.631 112.35 141.694 112.238 141.756 112.126L141.811 112.027L140.936 111.543C140.857 111.686 140.777 111.829 140.696 111.972L141.568 112.463ZM11.3877 115.039C11.4749 115.18 11.5626 115.321 11.6507 115.462L12.4986 114.932C12.4117 114.793 12.3252 114.654 12.2392 114.514L11.3877 115.039ZM139.788 115.462C139.876 115.321 139.964 115.18 140.051 115.039L139.199 114.514C139.113 114.654 139.027 114.793 138.94 114.932L139.788 115.462ZM13.285 117.965C13.3786 118.103 13.4727 118.24 13.5672 118.377L14.3898 117.808C14.2965 117.673 14.2037 117.538 14.1114 117.402L13.285 117.965ZM138.01 118.176C138.058 118.106 138.106 118.036 138.153 117.966L137.327 117.402C137.235 117.538 137.142 117.673 137.049 117.808L137.871 118.377C137.918 118.31 137.964 118.243 138.01 118.176ZM15.3151 120.802C15.415 120.935 15.5152 121.067 15.6159 121.2L16.4115 120.594C16.3121 120.463 16.2132 120.332 16.1147 120.201L15.3151 120.802ZM135.823 121.2C135.923 121.067 136.023 120.935 136.123 120.802L135.324 120.201C135.225 120.332 135.126 120.463 135.027 120.594L135.823 121.2ZM17.4737 123.542C17.5795 123.67 17.6857 123.798 17.7923 123.925L18.5592 123.283C18.454 123.158 18.3492 123.032 18.2448 122.905L17.4737 123.542ZM133.646 123.925C133.753 123.798 133.859 123.67 133.965 123.542L133.194 122.905C133.089 123.032 132.984 123.158 132.879 123.283L133.646 123.925ZM131.347 126.548C131.459 126.426 131.571 126.303 131.683 126.18L130.942 125.508C130.831 125.63 130.721 125.751 130.61 125.872L131.347 126.548ZM19.7559 126.18C19.8674 126.303 19.9794 126.426 20.0917 126.548L20.8283 125.872C20.7175 125.751 20.607 125.63 20.4969 125.508L19.7559 126.18ZM22.1568 128.71C22.2739 128.828 22.3913 128.945 22.5091 129.062L23.2139 128.353C23.0976 128.238 22.9817 128.122 22.8662 128.005L22.1568 128.71ZM128.929 129.062C129.047 128.945 129.165 128.828 129.282 128.71L128.572 128.005C128.457 128.122 128.341 128.238 128.225 128.353L128.929 129.062ZM24.6713 131.128C24.7936 131.24 24.9164 131.352 25.0395 131.463L25.7109 130.722C25.5895 130.612 25.4683 130.502 25.3476 130.391L24.6713 131.128ZM126.478 131.392C126.513 131.36 126.547 131.328 126.582 131.297C126.644 131.24 126.706 131.184 126.767 131.128L126.091 130.391C125.97 130.502 125.849 130.612 125.728 130.722L126.399 131.463C126.425 131.44 126.451 131.416 126.478 131.392ZM27.2941 133.427C27.4215 133.534 27.5493 133.64 27.6774 133.746L28.3141 132.974C28.1877 132.87 28.0616 132.765 27.9358 132.66L27.2941 133.427ZM123.761 133.746C123.889 133.64 124.017 133.534 124.144 133.427L123.503 132.66C123.377 132.765 123.251 132.87 123.124 132.974L123.761 133.746Z" fill="#9499C3"/>
<rect x="0.219238" y="75.0342" width="5" height="1" fill="#9499C3"/>
<rect x="146.219" y="75.0342" width="5" height="1" fill="#9499C3"/>
<rect width="5" height="1" transform="matrix(-0.819152 -0.573576 -0.573576 0.819152 140.074 115.032)" fill="#9499C3"/>
</svg>
