<svg width="406" height="233" viewBox="0 0 406 233" fill="none" xmlns="http://www.w3.org/2000/svg">
<path d="M553.925 0.0866964C553.734 0.0866964 553.647 0 553.578 0C553.38 0.0158087 553.189 0.0814268 553.023 0.190739C203.154 35.406 38.7471 187.468 0 224.885L5.15125 233H66.2899C225.181 73.2568 439.903 20.2345 553.474 2.80891L553.56 2.89561C553.63 2.89561 553.717 2.70487 553.821 2.70487C554.146 2.66287 554.444 2.50439 554.661 2.25884C554.878 2.01329 554.999 1.69737 555 1.36978C555 0.728242 554.532 0.277431 553.907 0.104042L553.925 0.0866964ZM8.75887 81.9956L5.06453 88.9485L80.1306 143.67C95.3391 134.838 110.861 126.556 126.665 118.841L76.3496 81.9956H8.75887ZM175.611 154.576C162.374 164.317 149.446 174.471 136.846 185.023L202.807 232.965H271.195L274.092 226.741L175.611 154.576Z" fill="white"/>
</svg>
